<?xml version="1.0" standalone="no"?><svg xmlns="http://www.w3.org/2000/svg" viewBox="0 0 1440 320"><path fill="#cadfdf" fill-opacity="1" d="M0,192L34.3,181.3C68.6,171,137,149,206,160C274.3,171,343,213,411,197.3C480,181,549,107,617,80C685.7,53,754,75,823,85.3C891.4,96,960,96,1029,90.7C1097.1,85,1166,75,1234,74.7C1302.9,75,1371,85,1406,90.7L1440,96L1440,320L1405.7,320C1371.4,320,1303,320,1234,320C1165.7,320,1097,320,1029,320C960,320,891,320,823,320C754.3,320,686,320,617,320C548.6,320,480,320,411,320C342.9,320,274,320,206,320C137.1,320,69,320,34,320L0,320Z"></path></svg>