<?xml version="1.0" standalone="no"?><svg xmlns="http://www.w3.org/2000/svg" viewBox="0 0 1440 320"><path fill="#cadfdf" fill-opacity="1" d="M0,288L18.5,288C36.9,288,74,288,111,272C147.7,256,185,224,222,208C258.5,192,295,192,332,181.3C369.2,171,406,149,443,138.7C480,128,517,128,554,133.3C590.8,139,628,149,665,128C701.5,107,738,53,775,32C812.3,11,849,21,886,58.7C923.1,96,960,160,997,192C1033.8,224,1071,224,1108,197.3C1144.6,171,1182,117,1218,85.3C1255.4,53,1292,43,1329,42.7C1366.2,43,1403,53,1422,58.7L1440,64L1440,320L1421.5,320C1403.1,320,1366,320,1329,320C1292.3,320,1255,320,1218,320C1181.5,320,1145,320,1108,320C1070.8,320,1034,320,997,320C960,320,923,320,886,320C849.2,320,812,320,775,320C738.5,320,702,320,665,320C627.7,320,591,320,554,320C516.9,320,480,320,443,320C406.2,320,369,320,332,320C295.4,320,258,320,222,320C184.6,320,148,320,111,320C73.8,320,37,320,18,320L0,320Z"></path></svg>