<?xml version="1.0" standalone="no"?><svg xmlns="http://www.w3.org/2000/svg" viewBox="0 0 1440 320"><path fill="#cadfdf" fill-opacity="1" d="M0,224L24,202.7C48,181,96,139,144,133.3C192,128,240,160,288,186.7C336,213,384,235,432,229.3C480,224,528,192,576,154.7C624,117,672,75,720,48C768,21,816,11,864,37.3C912,64,960,128,1008,170.7C1056,213,1104,235,1152,250.7C1200,267,1248,277,1296,261.3C1344,245,1392,203,1416,181.3L1440,160L1440,320L1416,320C1392,320,1344,320,1296,320C1248,320,1200,320,1152,320C1104,320,1056,320,1008,320C960,320,912,320,864,320C816,320,768,320,720,320C672,320,624,320,576,320C528,320,480,320,432,320C384,320,336,320,288,320C240,320,192,320,144,320C96,320,48,320,24,320L0,320Z"></path></svg>