<?xml version="1.0" standalone="no"?><svg xmlns="http://www.w3.org/2000/svg" viewBox="0 0 1440 320"><path fill="#cadfdf" fill-opacity="1" d="M0,160L8.3,154.7C16.6,149,33,139,50,149.3C66.2,160,83,192,99,197.3C115.9,203,132,181,149,170.7C165.5,160,182,160,199,138.7C215.2,117,232,75,248,53.3C264.8,32,281,32,298,32C314.5,32,331,32,348,42.7C364.1,53,381,75,397,85.3C413.8,96,430,96,447,101.3C463.4,107,480,117,497,101.3C513.1,85,530,43,546,64C562.8,85,579,171,596,218.7C612.4,267,629,277,646,261.3C662.1,245,679,203,695,160C711.7,117,728,75,745,90.7C761.4,107,778,181,794,213.3C811,245,828,235,844,213.3C860.7,192,877,160,894,122.7C910.3,85,927,43,943,69.3C960,96,977,192,993,229.3C1009.7,267,1026,245,1043,202.7C1059.3,160,1076,96,1092,106.7C1109,117,1126,203,1142,213.3C1158.6,224,1175,160,1192,122.7C1208.3,85,1225,75,1241,80C1257.9,85,1274,107,1291,117.3C1307.6,128,1324,128,1341,112C1357.2,96,1374,64,1390,80C1406.9,96,1423,160,1432,192L1440,224L1440,320L1431.7,320C1423.4,320,1407,320,1390,320C1373.8,320,1357,320,1341,320C1324.1,320,1308,320,1291,320C1274.5,320,1258,320,1241,320C1224.8,320,1208,320,1192,320C1175.2,320,1159,320,1142,320C1125.5,320,1109,320,1092,320C1075.9,320,1059,320,1043,320C1026.2,320,1010,320,993,320C976.6,320,960,320,943,320C926.9,320,910,320,894,320C877.2,320,861,320,844,320C827.6,320,811,320,794,320C777.9,320,761,320,745,320C728.3,320,712,320,695,320C678.6,320,662,320,646,320C629,320,612,320,596,320C579.3,320,563,320,546,320C529.7,320,513,320,497,320C480,320,463,320,447,320C430.3,320,414,320,397,320C380.7,320,364,320,348,320C331,320,314,320,298,320C281.4,320,265,320,248,320C231.7,320,215,320,199,320C182.1,320,166,320,149,320C132.4,320,116,320,99,320C82.8,320,66,320,50,320C33.1,320,17,320,8,320L0,320Z"></path></svg>