<?xml version="1.0" standalone="no"?><svg xmlns="http://www.w3.org/2000/svg" viewBox="0 0 1440 320"><path fill="#cadfdf" fill-opacity="1" d="M0,128L20,149.3C40,171,80,213,120,234.7C160,256,200,256,240,229.3C280,203,320,149,360,144C400,139,440,181,480,186.7C520,192,560,160,600,165.3C640,171,680,213,720,213.3C760,213,800,171,840,133.3C880,96,920,64,960,74.7C1000,85,1040,139,1080,144C1120,149,1160,107,1200,101.3C1240,96,1280,128,1320,128C1360,128,1400,96,1420,80L1440,64L1440,320L1420,320C1400,320,1360,320,1320,320C1280,320,1240,320,1200,320C1160,320,1120,320,1080,320C1040,320,1000,320,960,320C920,320,880,320,840,320C800,320,760,320,720,320C680,320,640,320,600,320C560,320,520,320,480,320C440,320,400,320,360,320C320,320,280,320,240,320C200,320,160,320,120,320C80,320,40,320,20,320L0,320Z"></path></svg>