<?xml version="1.0" standalone="no"?><svg xmlns="http://www.w3.org/2000/svg" viewBox="0 0 1440 320"><path fill="#cadfdf" fill-opacity="1" d="M0,0L17.1,42.7C34.3,85,69,171,103,224C137.1,277,171,299,206,288C240,277,274,235,309,218.7C342.9,203,377,213,411,197.3C445.7,181,480,139,514,144C548.6,149,583,203,617,186.7C651.4,171,686,85,720,58.7C754.3,32,789,64,823,106.7C857.1,149,891,203,926,213.3C960,224,994,192,1029,197.3C1062.9,203,1097,245,1131,245.3C1165.7,245,1200,203,1234,192C1268.6,181,1303,203,1337,224C1371.4,245,1406,267,1423,277.3L1440,288L1440,320L1422.9,320C1405.7,320,1371,320,1337,320C1302.9,320,1269,320,1234,320C1200,320,1166,320,1131,320C1097.1,320,1063,320,1029,320C994.3,320,960,320,926,320C891.4,320,857,320,823,320C788.6,320,754,320,720,320C685.7,320,651,320,617,320C582.9,320,549,320,514,320C480,320,446,320,411,320C377.1,320,343,320,309,320C274.3,320,240,320,206,320C171.4,320,137,320,103,320C68.6,320,34,320,17,320L0,320Z"></path></svg>